<svg width="650" height="650" xmlns="http://www.w3.org/2000/svg" xmlns:xlink="http://www.w3.org/1999/xlink" overflow="hidden"><defs><clipPath id="clip0"><rect x="300" y="35" width="650" height="650"/></clipPath><clipPath id="clip1"><rect x="380" y="176" width="491" height="368"/></clipPath><clipPath id="clip2"><rect x="380" y="176" width="491" height="368"/></clipPath><clipPath id="clip3"><rect x="380" y="176" width="491" height="368"/></clipPath></defs><g clip-path="url(#clip0)" transform="translate(-300 -35)"><path d="M302.5 360.5C302.5 181.56 447.336 36.5001 626 36.5001 804.664 36.5001 949.5 181.56 949.5 360.5 949.5 539.44 804.664 684.5 626 684.5 447.336 684.5 302.5 539.44 302.5 360.5Z" stroke="#000000" stroke-width="1.33333" stroke-miterlimit="8" fill-rule="evenodd"/><g clip-path="url(#clip1)"><g clip-path="url(#clip2)"><g clip-path="url(#clip3)"><path d="M323.394 602.182 401.455 602.182 401.455 412.606 289.939 328.97 289.939 568.727C289.939 587.239 304.938 602.182 323.394 602.182" fill="#4285F4" transform="matrix(1.00068 0 0 1 89.8636 -58.1818)"/><path d="M669.091 602.182 747.151 602.182C765.663 602.182 780.606 587.183 780.606 568.727L780.606 328.97 669.091 412.606" fill="#34A853" transform="matrix(1.00068 0 0 1 89.8636 -58.1818)"/><path d="M669.091 267.636 669.091 412.606 780.606 328.97 780.606 284.364C780.606 242.992 733.379 219.406 700.315 244.218" fill="#FBBC04" transform="matrix(1.00068 0 0 1 89.8636 -58.1818)"/><path d="M401.455 412.606 401.455 267.636 535.273 368 669.091 267.636 669.091 412.606 535.273 512.97" fill="#EA4335" transform="matrix(1.00068 0 0 1 89.8636 -58.1818)"/><path d="M289.939 284.364 289.939 328.97 401.455 412.606 401.455 267.636 370.23 244.218C337.11 219.406 289.939 242.992 289.939 284.364" fill="#C5221F" transform="matrix(1.00068 0 0 1 89.8636 -58.1818)"/></g></g></g></g></svg>