<svg viewBox="0 0 512 512" xmlns="http://www.w3.org/2000/svg" xmlns:xlink="http://www.w3.org/1999/xlink" id="Layer_1" overflow="hidden"><g id="XMLID_1_"><path d="M256 0C114.5 0 0 114.5 0 256 0 397.5 114.5 512 256 512 397.5 512 512 397.5 512 256 512 114.5 397.5 0 256 0ZM198.3 377.9 198.3 377.9 198.3 377.9 108.9 334.1C108 333.2 106.1 331.3 106.1 329.4L106.1 126.6 197.3 172.2 197.3 377.9 198.3 377.9ZM209.5 281.1 209.5 189 291.4 322.1 209.5 281.1ZM245.8 227.1 309.1 125.6 401.3 172.1 306.3 325.7 245.8 227.1ZM404 377.9 404 377.9 404 377.9 314.6 334.1 404 189 404 377.9Z" id="XMLID_8_"/></g></svg>